<svg xmlns="http://www.w3.org/2000/svg" viewBox="0 0 200 200">
  <defs>
    <linearGradient id="forestBand" x1="0" y1="0" x2="1" y2="1">
      <stop offset="0%" stop-color="#22c55e"/>
      <stop offset="100%" stop-color="#0ea5e9"/>
    </linearGradient>
  </defs>

  <circle cx="100" cy="100" r="80" fill="none" stroke="url(#forestBand)" stroke-width="10"/>
  <circle cx="100" cy="100" r="88" fill="none" stroke="#ffffff" stroke-width="1.2" stroke-opacity="0.6"/>

  <!-- 葉っぱ x8 -->
  <g fill="#86efac" stroke="#16a34a" stroke-width="0.8">
    <g transform="translate(100,16)"><path d="M0,-10 C4,-6 4,3 0,8 C-4,3 -4,-6 0,-10 Z"/><line x1="0" y1="-7" x2="0" y2="6" stroke="#16a34a" stroke-width="0.6"/></g>
    <g transform="translate(159.40,40.60) rotate(45)"><path d="M0,-10 C4,-6 4,3 0,8 C-4,3 -4,-6 0,-10 Z"/><line x1="0" y1="-7" x2="0" y2="6" stroke="#16a34a" stroke-width="0.6"/></g>
    <g transform="translate(184,100) rotate(90)"><path d="M0,-10 C4,-6 4,3 0,8 C-4,3 -4,-6 0,-10 Z"/><line x1="0" y1="-7" x2="0" y2="6" stroke="#16a34a" stroke-width="0.6"/></g>
    <g transform="translate(159.40,159.40) rotate(135)"><path d="M0,-10 C4,-6 4,3 0,8 C-4,3 -4,-6 0,-10 Z"/><line x1="0" y1="-7" x2="0" y2="6" stroke="#16a34a" stroke-width="0.6"/></g>
    <g transform="translate(100,184) rotate(180)"><path d="M0,-10 C4,-6 4,3 0,8 C-4,3 -4,-6 0,-10 Z"/><line x1="0" y1="-7" x2="0" y2="6" stroke="#16a34a" stroke-width="0.6"/></g>
    <g transform="translate(40.60,159.40) rotate(225)"><path d="M0,-10 C4,-6 4,3 0,8 C-4,3 -4,-6 0,-10 Z"/><line x1="0" y1="-7" x2="0" y2="6" stroke="#16a34a" stroke-width="0.6"/></g>
    <g transform="translate(16,100) rotate(270)"><path d="M0,-10 C4,-6 4,3 0,8 C-4,3 -4,-6 0,-10 Z"/><line x1="0" y1="-7" x2="0" y2="6" stroke="#16a34a" stroke-width="0.6"/></g>
    <g transform="translate(40.60,40.60) rotate(315)"><path d="M0,-10 C4,-6 4,3 0,8 C-4,3 -4,-6 0,-10 Z"/><line x1="0" y1="-7" x2="0" y2="6" stroke="#16a34a" stroke-width="0.6"/></g>
  </g>

  <!-- 小さな実 x8（葉っぱの間） -->
  <g fill="#fef9c3" stroke="#22c55e" stroke-width="0.8">
    <circle cx="132.15" cy="22.39" r="3"/>
    <circle cx="177.61" cy="67.85" r="3"/>
    <circle cx="177.61" cy="132.15" r="3"/>
    <circle cx="132.15" cy="177.61" r="3"/>
    <circle cx="67.85" cy="177.61" r="3"/>
    <circle cx="22.39" cy="132.15" r="3"/>
    <circle cx="22.39" cy="67.85" r="3"/>
    <circle cx="67.85" cy="22.39" r="3"/>
  </g>
</svg>
